<?xml version="1.0" encoding="utf-8"?>
<!-- Generator: Adobe Illustrator 16.0.0, SVG Export Plug-In . SVG Version: 6.00 Build 0)  -->
<!DOCTYPE svg PUBLIC "-//W3C//DTD SVG 1.1//EN" "http://www.w3.org/Graphics/SVG/1.1/DTD/svg11.dtd">
<svg version="1.1" id="图层_1" xmlns="http://www.w3.org/2000/svg" xmlns:xlink="http://www.w3.org/1999/xlink" x="0px" y="0px"
	 width="512px" height="512px" viewBox="0 0 512 512" enable-background="new 0 0 512 512" xml:space="preserve">
<g id="icomoon-ignore">
</g>
<path fill="#1F7246" d="M371.514,192h-67.646l-47.866,70.516L208.131,192h-67.645l81.081,121.232L130.081,448H256v-45.788h-25.078
	L256,364.715L311.698,448h70.222l-91.488-134.768L371.514,192L371.514,192z"/>
<path fill="#1F7246" d="M458.903,114.538c-11.105-15.146-26.587-32.85-43.589-49.852s-34.706-32.482-49.853-43.589
	C339.675,2.187,327.166,0,320,0H72C49.944,0,32,17.944,32,40v432c0,22.056,17.943,40,40,40h368c22.056,0,40-17.944,40-40V160
	C480,152.834,477.814,140.325,458.903,114.538L458.903,114.538L458.903,114.538z M392.688,87.313
	c15.35,15.35,27.399,29.199,36.289,40.687H352V51.027C363.491,59.917,377.339,71.966,392.688,87.313L392.688,87.313L392.688,87.313z
	 M448,472c0,4.336-3.664,8-8,8H72c-4.336,0-8-3.664-8-8V40c0-4.336,3.664-8,8-8c0,0,247.978-0.001,248,0v112c0,8.836,7.162,16,16,16
	h112V472z"/>
<g>
	<path d="M116.402,131.5H71.661V48.302h42.861v9.561H82.403v26.641h29.756v9.507H82.403v27.983h33.999V131.5z"/>
	<path d="M175.752,72.096l-19.873,29.917l19.604,29.487h-12.246l-11.333-18.906c-0.609-1.002-1.469-2.542-2.578-4.619h-0.215
		c-0.036,0.215-0.932,1.755-2.686,4.619L134.878,131.5h-12.085l20.195-29.165l-19.282-30.239h12.246l11.118,19.873
		c0.68,1.218,1.504,2.793,2.471,4.727h0.215l14.448-24.6H175.752z"/>
	<path d="M226.67,128.814c-4.548,2.721-10.026,4.082-16.436,4.082c-8.594,0-15.505-2.757-20.732-8.271
		c-5.229-5.514-7.842-12.657-7.842-21.431c0-9.739,2.82-17.59,8.459-23.552s13.186-8.943,22.639-8.943
		c5.442,0,10.098,0.967,13.965,2.9v10.42c-4.189-3.079-8.845-4.619-13.965-4.619c-6.016,0-10.913,2.086-14.69,6.257
		c-3.778,4.172-5.667,9.731-5.667,16.677c0,6.84,1.781,12.192,5.344,16.06c3.563,3.867,8.37,5.801,14.421,5.801
		c5.12,0,9.954-1.683,14.502-5.049V128.814z"/>
	<path d="M289.189,104.483h-41.572c0.179,6.338,1.915,11.235,5.21,14.69c3.294,3.456,7.895,5.183,13.803,5.183
		c6.66,0,12.766-2.13,18.316-6.392v9.399c-5.229,3.688-12.158,5.532-20.787,5.532c-8.593,0-15.298-2.721-20.115-8.164
		c-4.815-5.442-7.224-12.998-7.224-22.666c0-9.095,2.641-16.597,7.923-22.505c5.281-5.908,11.843-8.862,19.685-8.862
		c7.77,0,13.838,2.498,18.207,7.493s6.553,11.987,6.553,20.974V104.483z M278.662,96.051c-0.035-5.371-1.307-9.524-3.813-12.461
		c-2.508-2.936-6.035-4.404-10.582-4.404c-4.189,0-7.814,1.558-10.876,4.673c-3.061,3.115-4.986,7.18-5.773,12.192H278.662z"/>
	<path d="M303.154,131.5V43.575h10.527V131.5H303.154z"/>
</g>
</svg>
