<?xml version="1.0" encoding="utf-8"?>
<!-- Generator: Adobe Illustrator 16.0.0, SVG Export Plug-In . SVG Version: 6.00 Build 0)  -->
<!DOCTYPE svg PUBLIC "-//W3C//DTD SVG 1.1//EN" "http://www.w3.org/Graphics/SVG/1.1/DTD/svg11.dtd">
<svg version="1.1" id="图层_1" xmlns="http://www.w3.org/2000/svg" xmlns:xlink="http://www.w3.org/1999/xlink" x="0px" y="0px"
	 width="512px" height="512px" viewBox="0 0 512 512" enable-background="new 0 0 512 512" xml:space="preserve">
<g id="icomoon-ignore">
</g>
<path fill="#0078D7" d="M458.903,114.538c-11.106-15.146-26.587-32.85-43.589-49.852s-34.706-32.482-49.853-43.589
	C339.675,2.187,327.166,0,320,0H72C49.944,0,32,17.944,32,40v432c0,22.056,17.944,40,40,40h368c22.056,0,40-17.944,40-40V160
	C480,152.834,477.814,140.325,458.903,114.538L458.903,114.538z M392.688,87.313c15.35,15.35,27.399,29.199,36.289,40.687H352
	V51.027C363.492,59.917,377.339,71.966,392.688,87.313L392.688,87.313z M448,472c0,4.336-3.664,8-8,8H72c-4.336,0-8-3.664-8-8V40
	c0-4.336,3.664-8,8-8c0,0,247.978-0.001,248,0v112c0,8.836,7.163,16,16,16h112V472z"/>
<path fill="#0078D7" d="M368,416H144c-8.836,0-16-7.163-16-16s7.164-16,16-16h224c8.837,0,16,7.163,16,16S376.837,416,368,416z"/>
<path fill="#0078D7" d="M368,352H144c-8.836,0-16-7.163-16-16s7.164-16,16-16h224c8.837,0,16,7.163,16,16S376.837,352,368,352z"/>
<path fill="#0078D7" d="M368,288H144c-8.836,0-16-7.163-16-16s7.164-16,16-16h224c8.837,0,16,7.163,16,16S376.837,288,368,288z"/>
<g>
	<path d="M153.677,63.862h-24.009V137.5h-10.796V63.862H94.971v-9.561h58.706V63.862z"/>
	<path d="M224.737,137.5h-13.052l-18.584-31.313c-0.43-0.716-1.057-2.148-1.88-4.297h-0.269c-0.072,0.287-0.717,1.737-1.934,4.351
		l-19.121,31.26h-13.105l27.661-41.787l-25.459-41.411h13.159l16.436,28.789c0.967,1.684,1.934,3.652,2.9,5.908h0.215
		c0.859-1.934,1.915-3.992,3.169-6.177l17.188-28.521h12.3l-25.996,41.25L224.737,137.5z"/>
	<path d="M289.297,63.862h-24.008V137.5h-10.796V63.862h-23.901v-9.561h58.706V63.862z"/>
</g>
</svg>
